<?xml version="1.0" encoding="utf-8"?>
<!-- Generator: Adobe Illustrator 26.0.1, SVG Export Plug-In . SVG Version: 6.00 Build 0)  -->
<svg version="1.1" id="BACKGROUND" xmlns="http://www.w3.org/2000/svg" xmlns:xlink="http://www.w3.org/1999/xlink" x="0px" y="0px"
	 viewBox="0 0 1345.43 803.95" style="enable-background:new 0 0 1345.43 803.95;" xml:space="preserve">
<style type="text/css">
	.st0{clip-path:url(#SVGID_00000008861617849674602680000009769814093297598895_);fill:#172229;}
	.st1{clip-path:url(#SVGID_00000008861617849674602680000009769814093297598895_);}
	.st2{fill:url(#SVGID_00000058547185542346635260000001352554511439384711_);}
	.st3{fill:url(#SVGID_00000016048585132140602950000007010160658224692890_);}
	.st4{fill:url(#SVGID_00000026145388751183846370000006910493386832580241_);}
	.st5{fill:url(#SVGID_00000052086721541582297440000016910766768561298833_);}
	.st6{fill:url(#SVGID_00000044143867601976717990000009385043272158065325_);}
	.st7{fill:url(#SVGID_00000129898551761695895780000016139038289301568444_);}
	.st8{fill:url(#SVGID_00000087389407300427766960000010536492558063808392_);}
	.st9{fill:url(#SVGID_00000108273919012660437890000010696518815277896581_);}
	.st10{display:none;}
	.st11{display:inline;}
	.st12{fill:#E01F2E;}
	.st13{fill:#FFFFFF;}
	.st14{font-family:'Metropolis-Black';}
	.st15{font-size:73.4357px;}
	.st16{font-family:'Metropolis-Medium';}
	.st17{font-size:44.8367px;}
	.st18{fill:none;stroke:#FFFFFF;stroke-width:3;stroke-miterlimit:10;}
	.st19{fill:none;}
	.st20{font-size:11.7208px;}
</style>
<g>
	<defs>
		<rect id="SVGID_1_" x="0.02" y="0.07" width="1345.24" height="803.94"/>
	</defs>
	<clipPath id="SVGID_00000073707911272034467670000005010517259914277778_">
		<use xlink:href="#SVGID_1_"  style="overflow:visible;"/>
	</clipPath>
	
		<rect x="-0.46" y="-3.37" style="clip-path:url(#SVGID_00000073707911272034467670000005010517259914277778_);fill:#172229;" width="1345.72" height="807.38"/>
	<g style="clip-path:url(#SVGID_00000073707911272034467670000005010517259914277778_);">
		<defs>
			<rect id="SVGID_00000145055206256093833320000001458099795138743464_" width="1345.43" height="803.95"/>
		</defs>
		<clipPath id="SVGID_00000155146349593483837180000009764999066800863653_">
			<use xlink:href="#SVGID_00000145055206256093833320000001458099795138743464_"  style="overflow:visible;"/>
		</clipPath>
	</g>
	<g style="clip-path:url(#SVGID_00000073707911272034467670000005010517259914277778_);">
		<g>
			<g>
				
					<linearGradient id="SVGID_00000016043287980586564350000012368985442356985742_" gradientUnits="userSpaceOnUse" x1="293.669" y1="618.3304" x2="469.2507" y2="402.844">
					<stop  offset="0" style="stop-color:#2C3E4C"/>
					<stop  offset="6.572306e-03" style="stop-color:#2C3E4C"/>
					<stop  offset="0.3283" style="stop-color:#202E38"/>
					<stop  offset="0.6566" style="stop-color:#19252D"/>
					<stop  offset="1" style="stop-color:#172229"/>
				</linearGradient>
				<path style="fill:url(#SVGID_00000016043287980586564350000012368985442356985742_);" d="M-52.91,106.57
					C-57.15,181.44-9.1,256.4,60.7,283.8c58.1,22.81,123.11,13.98,185.33,19.03c144.57,11.74,279.48,106.45,339.63,238.44
					c29.37,64.45,42.2,136.77,81.47,195.71c44.32,66.52,121.72,109.78,201.61,112.67c-145.86,13.25-301.14,24.75-430.82-43.32
					c-63.92-33.55-118.28-86-151.37-150.15c-24.81-48.1-39.9-105.03-83.47-137.15c-53.48-39.41-130.17-26.67-189.37-56.81
					c-56.77-28.91-88.05-93.75-93.79-157.19c-5.74-63.45,9.91-126.66,25.45-188.45"/>
			</g>
			<g>
				
					<linearGradient id="SVGID_00000021824201065463943010000017019100053752265135_" gradientUnits="userSpaceOnUse" x1="280.4895" y1="606.876" x2="404.1945" y2="479.1803">
					<stop  offset="0" style="stop-color:#2C3E4C"/>
					<stop  offset="0.3099" style="stop-color:#22303B"/>
					<stop  offset="0.67" style="stop-color:#1A262D"/>
					<stop  offset="1" style="stop-color:#172229"/>
				</linearGradient>
				<path style="fill:url(#SVGID_00000021824201065463943010000017019100053752265135_);" d="M-88.62,336.26
					c22.78,42.57,71.19,66.21,119.03,72.71c47.84,6.5,96.3-1.36,144.27-6.8s97.8-8.29,143.39,7.62
					c39.6,13.81,74.09,41.8,95.77,77.71c25.22,41.78,32.58,91.62,49.86,137.26c38.39,101.33,129.73,180.86,235.38,204.95
					C564,843.91,423.45,788.7,334.16,686.35c-48.42-55.5-84.57-125.43-149.14-160.85c-36.81-20.19-79.22-26.9-120.38-35.13
					c-41.17-8.23-83.46-18.98-116.15-45.33c-32.69-26.34-53.06-72.36-37.71-111.43"/>
			</g>
			<g>
				
					<linearGradient id="SVGID_00000124857338393978517040000008617359663488109966_" gradientUnits="userSpaceOnUse" x1="5.9932" y1="895.1439" x2="303.9501" y2="597.187">
					<stop  offset="0" style="stop-color:#2C3E4C"/>
					<stop  offset="0.5219" style="stop-color:#22313C"/>
					<stop  offset="1" style="stop-color:#172229"/>
				</linearGradient>
				<path style="fill:url(#SVGID_00000124857338393978517040000008617359663488109966_);" d="M-87.86,350.21
					c5.5,37.54,34.29,68.42,67.81,86.18c33.52,17.76,71.62,24.5,109.05,30.74c37.42,6.23,75.54,12.4,109.55,29.21
					c98.87,48.84,136.68,171.16,220.81,242.46c77.96,66.07,185.81,80.88,287.29,93.02c-19.58,28.6-58.91,33.95-93.51,36.13
					c-217.18,13.65-435.75,5.12-651.2-25.42c-19.08-2.7-39.59-6.3-52.99-20.14c-17.01-17.57-16.68-45.1-15.27-69.51
					c7.69-132.55,15.38-265.1,23.07-397.64"/>
			</g>
			<g>
				
					<linearGradient id="SVGID_00000068642311780580867320000018429077793824126892_" gradientUnits="userSpaceOnUse" x1="5.2714" y1="884.3912" x2="222.0879" y2="664.9142">
					<stop  offset="0" style="stop-color:#2C3E4C"/>
					<stop  offset="0.5202" style="stop-color:#202E37"/>
					<stop  offset="1" style="stop-color:#172229"/>
				</linearGradient>
				<path style="fill:url(#SVGID_00000068642311780580867320000018429077793824126892_);" d="M-133.35,353.44
					c7.97,43.36,16.12,87.28,34.91,127.16c18.79,39.88,49.75,75.94,91.08,91.28c43.45,16.13,92.1,7.72,137.52,16.91
					c47,9.52,88.21,37.4,124.82,68.38c36.61,30.98,70.18,65.75,109.6,93.04c98.16,67.96,222.23,83.3,340.87,96.67
					c-259.75,23.57-522.15,17.89-780.64-16.9c-22.11-2.98-45.76-6.9-61.84-22.37c-21.19-20.39-22.15-53.43-21.42-82.82
					c3.01-122.61,10.43-245.1,22.23-367.17"/>
			</g>
		</g>
		<g>
			<g>
				
					<linearGradient id="SVGID_00000154422631982109058310000016346047282596951454_" gradientUnits="userSpaceOnUse" x1="987.017" y1="-468.0812" x2="1162.5988" y2="-683.5676" gradientTransform="matrix(-1 0 0 -1 2017.0265 -326.0781)">
					<stop  offset="0" style="stop-color:#2C3E4C"/>
					<stop  offset="0.0107" style="stop-color:#2C3D4B"/>
					<stop  offset="0.3288" style="stop-color:#202E38"/>
					<stop  offset="0.6552" style="stop-color:#19252D"/>
					<stop  offset="1" style="stop-color:#172229"/>
				</linearGradient>
				<path style="fill:url(#SVGID_00000154422631982109058310000016346047282596951454_);" d="M1376.58,653.76
					c4.24-74.87-43.81-149.83-113.61-177.23c-58.1-22.81-123.11-13.98-185.33-19.03c-144.57-11.74-279.48-106.45-339.63-238.44
					c-29.37-64.45-42.2-136.77-81.47-195.71C612.22-43.18,534.82-86.43,454.94-89.33c145.86-13.25,301.14-24.75,430.82,43.32
					c63.92,33.55,118.28,86,151.37,150.15c24.81,48.1,39.9,105.03,83.47,137.15c53.48,39.41,130.17,26.67,189.37,56.81
					c56.77,28.91,88.05,93.75,93.79,157.19c5.74,63.45-9.91,126.66-25.45,188.45"/>
			</g>
			<g>
				
					<linearGradient id="SVGID_00000140002913685709301580000017342405943160863362_" gradientUnits="userSpaceOnUse" x1="973.8375" y1="-479.5356" x2="1097.5426" y2="-607.2313" gradientTransform="matrix(-1 0 0 -1 2017.0265 -326.0781)">
					<stop  offset="0" style="stop-color:#2C3E4C"/>
					<stop  offset="0.3099" style="stop-color:#22303B"/>
					<stop  offset="0.67" style="stop-color:#1A262D"/>
					<stop  offset="1" style="stop-color:#172229"/>
				</linearGradient>
				<path style="fill:url(#SVGID_00000140002913685709301580000017342405943160863362_);" d="M1412.3,424.08
					c-22.78-42.57-71.19-66.21-119.03-72.71c-47.84-6.5-96.3,1.36-144.27,6.8c-47.98,5.44-97.8,8.29-143.39-7.62
					c-39.6-13.81-74.09-41.8-95.77-77.71c-25.22-41.78-32.58-91.62-49.86-137.26C821.58,34.26,730.24-45.27,624.59-69.35
					C759.68-83.58,900.23-28.37,989.52,73.99c48.42,55.5,84.57,125.43,149.14,160.85c36.81,20.19,79.22,26.9,120.38,35.13
					c41.17,8.23,83.46,18.98,116.15,45.33c32.69,26.34,53.06,72.36,37.71,111.43"/>
			</g>
			<g>
				
					<linearGradient id="SVGID_00000089543667491175210870000013089412040626202772_" gradientUnits="userSpaceOnUse" x1="699.3412" y1="-191.2677" x2="997.2981" y2="-489.2246" gradientTransform="matrix(-1 0 0 -1 2017.0265 -326.0781)">
					<stop  offset="0" style="stop-color:#2C3E4C"/>
					<stop  offset="0.5219" style="stop-color:#22313C"/>
					<stop  offset="1" style="stop-color:#172229"/>
				</linearGradient>
				<path style="fill:url(#SVGID_00000089543667491175210870000013089412040626202772_);" d="M1411.54,410.13
					c-5.5-37.54-34.29-68.42-67.81-86.18c-33.52-17.76-71.62-24.5-109.05-30.74c-37.42-6.23-75.54-12.4-109.55-29.21
					c-98.87-48.84-136.68-171.16-220.81-242.46c-77.96-66.07-185.81-80.88-287.29-93.02c19.58-28.6,58.91-33.95,93.51-36.13
					c217.18-13.65,435.75-5.12,651.2,25.42c19.08,2.7,39.59,6.3,52.99,20.14c17.01,17.57,16.68,45.1,15.27,69.51
					c-7.69,132.55-15.38,265.1-23.07,397.64"/>
			</g>
			<g>
				
					<linearGradient id="SVGID_00000022541253536355441300000004635076798149942186_" gradientUnits="userSpaceOnUse" x1="698.6194" y1="-202.0203" x2="915.436" y2="-421.4974" gradientTransform="matrix(-1 0 0 -1 2017.0265 -326.0781)">
					<stop  offset="0" style="stop-color:#2C3E4C"/>
					<stop  offset="0.5202" style="stop-color:#202E37"/>
					<stop  offset="1" style="stop-color:#172229"/>
				</linearGradient>
				<path style="fill:url(#SVGID_00000022541253536355441300000004635076798149942186_);" d="M1457.03,406.9
					c-7.97-43.36-16.12-87.28-34.91-127.16c-18.79-39.88-49.75-75.94-91.08-91.28c-43.45-16.13-92.1-7.72-137.52-16.91
					c-47-9.52-88.21-37.4-124.82-68.38c-36.61-30.98-70.18-65.75-109.61-93.04c-98.16-67.96-222.23-83.3-340.87-96.67
					c259.75-23.57,522.15-17.89,780.64,16.9c22.11,2.98,45.76,6.9,61.84,22.37c21.19,20.39,22.15,53.43,21.42,82.82
					c-3.01,122.61-10.42,245.1-22.23,367.17"/>
			</g>
		</g>
	</g>
</g>
<g class="st10">
	<g class="st11">
		<path class="st12" d="M986.34,568.1h7.73c39.82,0,72.22-32.4,72.22-72.22V308.08c0-39.82-32.4-72.22-72.22-72.22H447.14v13h546.93
			c32.66,0,59.22,26.57,59.22,59.22v187.79c0,32.66-26.57,59.22-59.22,59.22h-7.68v12.66"/>
		<path class="st12" d="M897.53,567.76V555.1H351.36c-32.66,0-59.22-26.57-59.22-59.22V308.08c0-32.66,26.57-59.22,59.22-59.22h6.92
			v-13h-6.92c-39.82,0-72.22,32.4-72.22,72.22v187.79c0,39.82,32.4,72.22,72.22,72.22h546.13"/>
	</g>
	<g class="st11">
		<g>
			<path class="st13" d="M385.78,240.56c0.01-0.01,0.02-0.02,0.03-0.03c5.71-1.29,9.6-5.88,9.97-10.64
				c0.02-0.25,0.04-0.49,0.04-0.74c0-6.7-5.69-12.06-11.72-12.06c-7.03,0-12.39,5.36-12.39,12.06c0,5.93,3.61,12.29,8.73,17.96
				c5,5.52,11.44,10.38,17.39,13.52l3.01-5.02C394.48,251.93,387.46,245.91,385.78,240.56z"/>
			<path class="st13" d="M416.91,240.54c6.03-1.34,9.71-6.36,9.71-11.39c0-6.7-5.36-12.06-11.38-12.06
				c-7.03,0-12.39,5.36-12.39,12.06c0,11.72,14.06,25.11,26.12,31.48l3.01-5.02C425.62,251.92,418.25,245.89,416.91,240.54z"/>
		</g>
		<g>
			<path class="st13" d="M952.89,560.03c-0.01,0.01-0.02,0.02-0.03,0.03c-5.71,1.29-9.61,5.88-9.97,10.64
				c-0.02,0.25-0.04,0.49-0.04,0.74c0,6.7,5.69,12.06,11.72,12.06c7.03,0,12.39-5.36,12.39-12.06c0-5.93-3.61-12.29-8.73-17.96
				c-5-5.52-11.44-10.38-17.39-13.52l-3.01,5.02C944.18,548.67,951.2,554.68,952.89,560.03z"/>
			<path class="st13" d="M921.75,560.06c-6.03,1.34-9.71,6.36-9.71,11.39c0,6.7,5.36,12.06,11.38,12.06
				c7.03,0,12.39-5.36,12.39-12.06c0-11.72-14.06-25.11-26.12-31.48l-3.01,5.02C913.05,548.67,920.41,554.7,921.75,560.06z"/>
		</g>
	</g>
	<g class="st11">
		<g>
			<text transform="matrix(1 0 0 1 459.9392 359.7506)" class="st13 st14 st15">Quote Banner</text>
		</g>
		<g>
			<text transform="matrix(1 0 0 1 540.406 411.7199)" class="st13 st16 st17">Your text here</text>
		</g>
		<line class="st18" x1="638.53" y1="439.45" x2="706.9" y2="439.45"/>
		<rect x="542.89" y="461.11" class="st19" width="259.65" height="45.04"/>
		<text transform="matrix(1 0 0 1 544.9979 469.4269)"><tspan x="0" y="0" class="st13 st16 st20">Lorem ipsum dolor sit amet, consectetuer adipiscing </tspan><tspan x="3.81" y="14.07" class="st13 st16 st20">elit, sed diam nonummy nibh euismod tincidunt ut </tspan><tspan x="2.39" y="28.13" class="st13 st16 st20">laoreet dolore magna aliquam erat volutpat. Ut wisi </tspan></text>
	</g>
</g>
</svg>
